<svg width="28" height="26" viewBox="0 0 28 26" fill="none" xmlns="http://www.w3.org/2000/svg">
<path d="M1.20188 4.58683C1.20188 3.86571 1.68263 3.38496 2.40376 3.38496H3.60563C4.32676 3.38496 4.80751 3.86571 4.80751 4.58683C4.80751 5.30796 4.32676 5.78871 3.60563 5.78871H2.40376C1.68263 5.78871 1.20188 5.30796 1.20188 4.58683ZM2.40376 14.2019C2.40376 13.4807 2.88451 13 3.60563 13H4.80751C5.52864 13 6.00939 13.4807 6.00939 14.2019C6.00939 14.923 5.52864 15.4037 4.80751 15.4037H3.60563C2.88451 15.4037 2.40376 14.923 2.40376 14.2019ZM2.40376 17.8075C1.68263 17.8075 1.20188 18.2882 1.20188 19.0094C1.20188 19.7305 1.68263 20.2112 2.40376 20.2112H12.0188C12.7399 20.2112 13.2207 19.7305 13.2207 19.0094C13.2207 18.2882 12.7399 17.8075 12.0188 17.8075H2.40376ZM22.8357 4.58683C22.8357 3.86571 23.3164 3.38496 24.0376 3.38496H26.4413C27.1624 3.38496 27.6432 3.86571 27.6432 4.58683C27.6432 5.30796 27.1624 5.78871 26.4413 5.78871H24.0376C23.3164 5.78871 22.8357 5.30796 22.8357 4.58683ZM6.00939 22.615C5.28826 22.615 4.80751 23.0958 4.80751 23.8169C4.80751 24.538 5.28826 25.0188 6.00939 25.0188H14.4225C15.1437 25.0188 15.6244 24.538 15.6244 23.8169C15.6244 23.0958 15.1437 22.615 14.4225 22.615H6.00939ZM1.20188 10.5962C0.480751 10.5962 0 10.1155 0 9.39435C0 8.67322 0.480751 8.19247 1.20188 8.19247H15.6244C16.9465 8.19247 18.0282 7.11078 18.0282 5.78871C18.0282 4.46665 16.9465 3.38496 15.6244 3.38496C14.9033 3.38496 14.3023 3.62533 13.9418 4.10608C13.461 4.58683 12.7399 4.58683 12.2592 4.10608C11.7784 3.62533 11.7784 2.90421 12.2592 2.42345C13.1005 1.58214 14.3023 0.981201 15.6244 0.981201C18.2685 0.981201 20.4319 3.14458 20.4319 5.78871C20.4319 8.43284 18.2685 10.5962 15.6244 10.5962H1.20188ZM24.0376 13C24.7587 13 25.2394 12.5192 25.2394 11.7981C25.2394 11.077 24.7587 10.5962 24.0376 10.5962C23.677 10.5962 23.4366 10.7164 23.1962 10.9568C22.7155 11.4375 21.9944 11.4375 21.5136 10.9568C21.0329 10.476 21.0329 9.75491 21.5136 9.27416C22.1146 8.55303 23.0761 8.19247 24.0376 8.19247C26.0808 8.19247 27.6432 9.75491 27.6432 11.7981C27.6432 13.8413 26.0808 15.4037 24.0376 15.4037H13.2207C12.4995 15.4037 12.0188 14.923 12.0188 14.2019C12.0188 13.4807 12.4995 13 13.2207 13H24.0376ZM22.8357 20.2112H16.8263C16.1052 20.2112 15.6244 19.7305 15.6244 19.0094C15.6244 18.2882 16.1052 17.8075 16.8263 17.8075H22.8357C24.8789 17.8075 26.4413 19.3699 26.4413 21.4131C26.4413 23.4563 24.8789 25.0188 22.8357 25.0188C21.8742 25.0188 20.9127 24.6582 20.3117 23.9371C19.831 23.4563 19.831 22.7352 20.3117 22.2544C20.7925 21.7737 21.5136 21.7737 21.9944 22.2544C22.2347 22.4948 22.4751 22.615 22.8357 22.615C23.5568 22.615 24.0376 22.1343 24.0376 21.4131C24.0376 20.692 23.5568 20.2112 22.8357 20.2112Z" fill="white"/>
</svg>
